{
  "version": "1.1.6",
  "modules": [
    {
      "id": 30,
      "plugin": "4msCompany",
      "version": "1.0.0",
      "model": "metaModuleHubModule",
      "params": [
        {
          "id": 0,
          "value": 0.0
        },
        {
          "id": 1,
          "value": 0.0
        },
        {
          "id": 2,
          "value": 0.0
        },
        {
          "id": 3,
          "value": 0.0
        },
        {
          "id": 4,
          "value": 0.0
        },
        {
          "id": 5,
          "value": 0.0
        },
        {
          "id": 6,
          "value": 0.0
        },
        {
          "id": 7,
          "value": 0.0
        },
        {
          "id": 8,
          "value": 0.0
        }
      ],
      "leftModuleId": 43,
      "rightModuleId": 33,
      "data": {
        "Mappings": [
          {
            "DstModID": 43,
            "DstObjID": 0,
            "DstObjType": "OutputJack",
            "SrcModID": 30,
            "SrcObjID": 0,
            "SrcObjType": "OutputJack"
          },
          {
            "DstModID": 43,
            "DstObjID": 0,
            "DstObjType": "Knob",
            "SrcModID": 30,
            "SrcObjID": 0,
            "SrcObjType": "Knob"
          },
          {
            "DstModID": 43,
            "DstObjID": 1,
            "DstObjType": "Knob",
            "SrcModID": 30,
            "SrcObjID": 1,
            "SrcObjType": "Knob"
          },
          {
            "DstModID": 47,
            "DstObjID": 0,
            "DstObjType": "Knob",
            "SrcModID": 30,
            "SrcObjID": 2,
            "SrcObjType": "Knob"
          },
          {
            "DstModID": 47,
            "DstObjID": 2,
            "DstObjType": "Knob",
            "SrcModID": 30,
            "SrcObjID": 3,
            "SrcObjType": "Knob"
          }
        ],
        "PatchName": "test_bpfCore"
      },
      "pos": [
        16,
        0
      ]
    },
    {
      "id": 33,
      "plugin": "Fundamental",
      "version": "1.4.0",
      "model": "Scope",
      "params": [
        {
          "id": 0,
          "value": 0.0
        },
        {
          "id": 1,
          "value": 0.0
        },
        {
          "id": 2,
          "value": 0.0
        },
        {
          "id": 3,
          "value": 0.0
        },
        {
          "id": 4,
          "value": 9.64999962
        },
        {
          "id": 5,
          "value": 0.0
        },
        {
          "id": 6,
          "value": 0.809998631
        },
        {
          "id": 7,
          "value": 0.0
        }
      ],
      "leftModuleId": 30,
      "rightModuleId": 41,
      "data": {
        "lissajous": 0,
        "external": 1
      },
      "pos": [
        32,
        0
      ]
    },
    {
      "id": 38,
      "plugin": "Core",
      "version": "1.1.6",
      "model": "Notes",
      "params": [],
      "leftModuleId": 42,
      "text": "BANDPASS CORE TEST\n\nKnob A - Filter Cutoff\nKnob B - Filter Resonance\nKnob C - LFO Speed\nKnob D - LFO Depth\n\nAudio In L connected to white noise\nAudio Out L - Filter Output\n\nKnobs B/C/D down: sweep knob A from 0 to 100. Should be almost no output at 0, and an FFT should show a peak at about 300Hz at 50%, and 7.5kHz at max.\n\nKnob B (Res) should have a subtle effect from 0 to 20%, and a less subtle effect from 20% to 100%.\n\nKnob A at 50%, Knob C at 0, knob D at 100%:  LFO should sweep freq from 0 to max\n",
      "pos": [
        55,
        0
      ]
    },
    {
      "id": 41,
      "plugin": "Fundamental",
      "version": "1.4.0",
      "model": "Split",
      "params": [],
      "leftModuleId": 33,
      "rightModuleId": 42,
      "pos": [
        45,
        0
      ]
    },
    {
      "id": 42,
      "plugin": "Fundamental",
      "version": "1.4.0",
      "model": "Split",
      "params": [],
      "leftModuleId": 41,
      "rightModuleId": 38,
      "pos": [
        50,
        0
      ]
    },
    {
      "id": 43,
      "plugin": "4msCompany",
      "version": "1.0.0",
      "model": "BANDPASSFILTER",
      "params": [
        {
          "id": 0,
          "value": 0.607000053
        },
        {
          "id": 1,
          "value": 0.0
        },
        {
          "id": 2,
          "value": 1.0
        }
      ],
      "leftModuleId": 44,
      "rightModuleId": 30,
      "pos": [
        8,
        0
      ]
    },
    {
      "id": 44,
      "plugin": "4msCompany",
      "version": "1.0.0",
      "model": "NOISE",
      "params": [],
      "leftModuleId": 47,
      "rightModuleId": 43,
      "pos": [
        4,
        0
      ]
    },
    {
      "id": 45,
      "plugin": "Core",
      "version": "1.1.6",
      "model": "AudioInterface",
      "params": [],
      "rightModuleId": 46,
      "data": {
        "audio": {
          "driver": 5,
          "offset": 0,
          "maxChannels": 8,
          "sampleRate": 44100,
          "blockSize": 256
        }
      },
      "pos": [
        32,
        1
      ]
    },
    {
      "id": 46,
      "plugin": "Fundamental",
      "version": "1.4.0",
      "model": "VCMixer",
      "params": [
        {
          "id": 0,
          "value": 1.0
        },
        {
          "id": 1,
          "value": 0.0
        },
        {
          "id": 2,
          "value": 1.0
        },
        {
          "id": 3,
          "value": 1.0
        },
        {
          "id": 4,
          "value": 1.0
        }
      ],
      "leftModuleId": 45,
      "pos": [
        42,
        1
      ]
    },
    {
      "id": 47,
      "plugin": "4msCompany",
      "version": "1.0.0",
      "model": "lfo",
      "params": [
        {
          "id": 0,
          "value": 0.0959999934
        },
        {
          "id": 1,
          "value": 0.0
        },
        {
          "id": 2,
          "value": 0.0
        }
      ],
      "rightModuleId": 44,
      "pos": [
        0,
        0
      ]
    }
  ],
  "cables": [
    {
      "id": 46,
      "outputModuleId": 41,
      "outputId": 0,
      "inputModuleId": 33,
      "inputId": 0,
      "color": "#c9b70e"
    },
    {
      "id": 48,
      "outputModuleId": 42,
      "outputId": 0,
      "inputModuleId": 33,
      "inputId": 1,
      "color": "#c91847"
    },
    {
      "id": 49,
      "outputModuleId": 44,
      "outputId": 0,
      "inputModuleId": 43,
      "inputId": 0,
      "color": "#c91847"
    },
    {
      "id": 50,
      "outputModuleId": 43,
      "outputId": 0,
      "inputModuleId": 41,
      "inputId": 0,
      "color": "#0986ad"
    },
    {
      "id": 52,
      "outputModuleId": 46,
      "outputId": 0,
      "inputModuleId": 45,
      "inputId": 0,
      "color": "#0c8e15"
    },
    {
      "id": 53,
      "outputModuleId": 46,
      "outputId": 0,
      "inputModuleId": 45,
      "inputId": 1,
      "color": "#c91847"
    },
    {
      "id": 51,
      "outputModuleId": 41,
      "outputId": 0,
      "inputModuleId": 46,
      "inputId": 1,
      "color": "#c9b70e"
    },
    {
      "id": 54,
      "outputModuleId": 47,
      "outputId": 0,
      "inputModuleId": 43,
      "inputId": 1,
      "color": "#0986ad"
    }
  ]
}