{
  "version": "1.1.6",
  "modules": [
    {
      "id": 30,
      "plugin": "4msCompany",
      "version": "1.0.0",
      "model": "metaModuleHubModule",
      "params": [
        {
          "id": 0,
          "value": 0.0
        },
        {
          "id": 1,
          "value": 0.0
        },
        {
          "id": 2,
          "value": 0.0
        },
        {
          "id": 3,
          "value": 0.0
        },
        {
          "id": 4,
          "value": 0.0
        },
        {
          "id": 5,
          "value": 0.0
        },
        {
          "id": 6,
          "value": 0.0
        },
        {
          "id": 7,
          "value": 0.0
        },
        {
          "id": 8,
          "value": 0.0
        }
      ],
      "leftModuleId": 58,
      "rightModuleId": 33,
      "data": {
        "Mappings": [
          {
            "DstModID": 58,
            "DstObjID": 0,
            "DstObjType": "OutputJack",
            "SrcModID": 30,
            "SrcObjID": 0,
            "SrcObjType": "OutputJack"
          },
          {
            "DstModID": 59,
            "DstObjID": 0,
            "DstObjType": "OutputJack",
            "SrcModID": 30,
            "SrcObjID": 1,
            "SrcObjType": "OutputJack"
          },
          {
            "DstModID": 58,
            "DstObjID": 0,
            "DstObjType": "Knob",
            "SrcModID": 30,
            "SrcObjID": 0,
            "SrcObjType": "Knob"
          },
          {
            "DstModID": 59,
            "DstObjID": 0,
            "DstObjType": "Knob",
            "SrcModID": 30,
            "SrcObjID": 1,
            "SrcObjType": "Knob"
          },
          {
            "DstModID": 60,
            "DstObjID": 2,
            "DstObjType": "Knob",
            "SrcModID": 30,
            "SrcObjID": 2,
            "SrcObjType": "Knob"
          }
        ],
        "PatchName": "test_comparatorCore"
      },
      "pos": [
        12,
        0
      ]
    },
    {
      "id": 33,
      "plugin": "Fundamental",
      "version": "1.4.0",
      "model": "Scope",
      "params": [
        {
          "id": 0,
          "value": 0.0
        },
        {
          "id": 1,
          "value": 0.0
        },
        {
          "id": 2,
          "value": 0.0
        },
        {
          "id": 3,
          "value": 0.0
        },
        {
          "id": 4,
          "value": 9.64999962
        },
        {
          "id": 5,
          "value": 0.0
        },
        {
          "id": 6,
          "value": 0.809998631
        },
        {
          "id": 7,
          "value": 0.0
        }
      ],
      "leftModuleId": 30,
      "rightModuleId": 41,
      "data": {
        "lissajous": 0,
        "external": 1
      },
      "pos": [
        28,
        0
      ]
    },
    {
      "id": 38,
      "plugin": "Core",
      "version": "1.1.6",
      "model": "Notes",
      "params": [],
      "leftModuleId": 42,
      "rightModuleId": 61,
      "text": "COMPARATOR CORE TEST\n\nLFO out patched to comparator input\n\nKnob A  - Offset\nKnob B - LFO Speed\nKnob C - CV Amount\nAudio Out L - Comparator Output\nAudio Out R - LFO output\n\nAdjust offset (Knob A) and monitor output. Out L should be rect wave with duty cycle going from 100% to 0% as you turn knob A from 0% to 100%. Out L should be 0v with A at 100% and 5V with A at 0%. \n\nTurn knob B the full range, duty cycle should be same no matter what.\n\nValues go from -5 to +5 volts\n \n\n",
      "pos": [
        51,
        0
      ]
    },
    {
      "id": 41,
      "plugin": "Fundamental",
      "version": "1.4.0",
      "model": "Split",
      "params": [],
      "leftModuleId": 33,
      "rightModuleId": 42,
      "pos": [
        41,
        0
      ]
    },
    {
      "id": 42,
      "plugin": "Fundamental",
      "version": "1.4.0",
      "model": "Split",
      "params": [],
      "leftModuleId": 41,
      "rightModuleId": 38,
      "pos": [
        46,
        0
      ]
    },
    {
      "id": 58,
      "plugin": "4msCompany",
      "version": "1.0.0",
      "model": "comparator",
      "params": [
        {
          "id": 0,
          "value": 0.5
        },
        {
          "id": 1,
          "value": 1.0
        }
      ],
      "leftModuleId": 59,
      "rightModuleId": 30,
      "pos": [
        8,
        0
      ]
    },
    {
      "id": 59,
      "plugin": "4msCompany",
      "version": "1.0.0",
      "model": "lfo",
      "params": [
        {
          "id": 0,
          "value": 0.175500005
        },
        {
          "id": 1,
          "value": 0.0
        },
        {
          "id": 2,
          "value": 1.0
        }
      ],
      "leftModuleId": 60,
      "rightModuleId": 58,
      "pos": [
        4,
        0
      ]
    },
    {
      "id": 60,
      "plugin": "4msCompany",
      "version": "1.0.0",
      "model": "lfo",
      "params": [
        {
          "id": 0,
          "value": 0.0
        },
        {
          "id": 1,
          "value": 0.0
        },
        {
          "id": 2,
          "value": 0.0
        }
      ],
      "rightModuleId": 59,
      "pos": [
        0,
        0
      ]
    },
    {
      "id": 61,
      "plugin": "Core",
      "version": "1.1.6",
      "model": "Notes",
      "params": [],
      "leftModuleId": 38,
      "text": "Adjust Knob  C to introduce CV modulation. The pulsewidth of the output will change in both directions (+ and -)\nWith Knob A at 50%, and Knob C at 100%, the pulse width should go from 0 to 100% (the sound will cut out for equal time at min and max)",
      "pos": [
        67,
        0
      ]
    }
  ],
  "cables": [
    {
      "id": 46,
      "outputModuleId": 41,
      "outputId": 0,
      "inputModuleId": 33,
      "inputId": 0,
      "color": "#c9b70e"
    },
    {
      "id": 48,
      "outputModuleId": 42,
      "outputId": 0,
      "inputModuleId": 33,
      "inputId": 1,
      "color": "#c91847"
    },
    {
      "id": 62,
      "outputModuleId": 59,
      "outputId": 0,
      "inputModuleId": 58,
      "inputId": 0,
      "color": "#0c8e15"
    },
    {
      "id": 64,
      "outputModuleId": 58,
      "outputId": 0,
      "inputModuleId": 41,
      "inputId": 0,
      "color": "#0986ad"
    },
    {
      "id": 65,
      "outputModuleId": 59,
      "outputId": 0,
      "inputModuleId": 42,
      "inputId": 0,
      "color": "#c9b70e"
    },
    {
      "id": 66,
      "outputModuleId": 60,
      "outputId": 0,
      "inputModuleId": 58,
      "inputId": 1,
      "color": "#0c8e15"
    }
  ]
}