{
  "version": "1.1.6",
  "modules": [
    {
      "id": 30,
      "plugin": "4msCompany",
      "version": "1.0.0",
      "model": "metaModuleHubModule",
      "params": [
        {
          "id": 0,
          "value": 0.0
        },
        {
          "id": 1,
          "value": 0.0
        },
        {
          "id": 2,
          "value": 0.0
        },
        {
          "id": 3,
          "value": 0.0
        },
        {
          "id": 4,
          "value": 0.0
        },
        {
          "id": 5,
          "value": 0.0
        },
        {
          "id": 6,
          "value": 0.0
        },
        {
          "id": 7,
          "value": 0.0
        },
        {
          "id": 8,
          "value": 0.0
        }
      ],
      "leftModuleId": 48,
      "rightModuleId": 33,
      "data": {
        "Mappings": [
          {
            "DstModID": 48,
            "DstObjID": 0,
            "DstObjType": "Knob",
            "SrcModID": 30,
            "SrcObjID": 0,
            "SrcObjType": "Knob"
          },
          {
            "DstModID": 48,
            "DstObjID": 1,
            "DstObjType": "Knob",
            "SrcModID": 30,
            "SrcObjID": 1,
            "SrcObjType": "Knob"
          },
          {
            "DstModID": 51,
            "DstObjID": 0,
            "DstObjType": "Knob",
            "SrcModID": 30,
            "SrcObjID": 2,
            "SrcObjType": "Knob"
          },
          {
            "DstModID": 51,
            "DstObjID": 1,
            "DstObjType": "Knob",
            "SrcModID": 30,
            "SrcObjID": 3,
            "SrcObjType": "Knob"
          },
          {
            "DstModID": 48,
            "DstObjID": 0,
            "DstObjType": "OutputJack",
            "SrcModID": 30,
            "SrcObjID": 0,
            "SrcObjType": "OutputJack"
          }
        ],
        "PatchName": "test_bitcrushCore"
      },
      "pos": [
        16,
        0
      ]
    },
    {
      "id": 33,
      "plugin": "Fundamental",
      "version": "1.4.0",
      "model": "Scope",
      "params": [
        {
          "id": 0,
          "value": 0.0
        },
        {
          "id": 1,
          "value": 0.0
        },
        {
          "id": 2,
          "value": 0.0
        },
        {
          "id": 3,
          "value": 0.0
        },
        {
          "id": 4,
          "value": 9.64999962
        },
        {
          "id": 5,
          "value": 0.0
        },
        {
          "id": 6,
          "value": 0.809998631
        },
        {
          "id": 7,
          "value": 0.0
        }
      ],
      "leftModuleId": 30,
      "rightModuleId": 41,
      "data": {
        "lissajous": 0,
        "external": 1
      },
      "pos": [
        32,
        0
      ]
    },
    {
      "id": 38,
      "plugin": "Core",
      "version": "1.1.6",
      "model": "Notes",
      "params": [],
      "leftModuleId": 42,
      "rightModuleId": 82,
      "text": "BITCRUSH CORE TEST\n\nKnob A - Sample Rate\nKnob B - Bit Depth\nKnob C - Sample Rate CV (bipolar)\nKnob D - Bit Depth CV (bipolar)\n\nSine LFO is patched into Bit crush input.\n \n\nTest output on Audio Out Left\n\nSample Rate knob varies from about 25Hz (40ms steps) to smooth. No noticalble change with knob 50% to 100%\n\nBit Depth knob varies from 1-bit (square wave) to smooth. no noticable change from 50% to 100%\n\n",
      "pos": [
        55,
        0
      ]
    },
    {
      "id": 41,
      "plugin": "Fundamental",
      "version": "1.4.0",
      "model": "Split",
      "params": [],
      "leftModuleId": 33,
      "rightModuleId": 42,
      "pos": [
        45,
        0
      ]
    },
    {
      "id": 42,
      "plugin": "Fundamental",
      "version": "1.4.0",
      "model": "Split",
      "params": [],
      "leftModuleId": 41,
      "rightModuleId": 38,
      "pos": [
        50,
        0
      ]
    },
    {
      "id": 48,
      "plugin": "4msCompany",
      "version": "1.0.0",
      "model": "BITCRUSH",
      "params": [
        {
          "id": 0,
          "value": 1.0
        },
        {
          "id": 1,
          "value": 1.0
        }
      ],
      "leftModuleId": 49,
      "rightModuleId": 30,
      "pos": [
        12,
        0
      ]
    },
    {
      "id": 49,
      "plugin": "4msCompany",
      "version": "1.0.0",
      "model": "lfo",
      "params": [
        {
          "id": 0,
          "value": 0.0
        },
        {
          "id": 1,
          "value": 0.0
        },
        {
          "id": 2,
          "value": 1.0
        }
      ],
      "leftModuleId": 51,
      "rightModuleId": 48,
      "pos": [
        8,
        0
      ]
    },
    {
      "id": 51,
      "plugin": "4msCompany",
      "version": "1.0.0",
      "model": "attenuvert",
      "params": [
        {
          "id": 0,
          "value": 0.5
        },
        {
          "id": 1,
          "value": 0.5
        }
      ],
      "leftModuleId": 52,
      "rightModuleId": 49,
      "pos": [
        4,
        0
      ]
    },
    {
      "id": 52,
      "plugin": "4msCompany",
      "version": "1.0.0",
      "model": "lfo",
      "params": [
        {
          "id": 0,
          "value": 0.0
        },
        {
          "id": 1,
          "value": 0.0
        },
        {
          "id": 2,
          "value": 1.0
        }
      ],
      "rightModuleId": 51,
      "pos": [
        0,
        0
      ]
    },
    {
      "id": 82,
      "plugin": "Core",
      "version": "1.1.6",
      "model": "Notes",
      "params": [],
      "leftModuleId": 38,
      "text": "Knobs C/D test:\nTurn all knobs center.\nTurn C to 100%: bottom of sine should be step-wave\nTurn C down to 0%: top of sine should be step-wave\n\nTurn D to 100%: bottom of sine should be flat/square\nTurn D to 0%: top of sine should be flat/square",
      "pos": [
        71,
        0
      ]
    }
  ],
  "cables": [
    {
      "id": 46,
      "outputModuleId": 41,
      "outputId": 0,
      "inputModuleId": 33,
      "inputId": 0,
      "color": "#c9b70e"
    },
    {
      "id": 48,
      "outputModuleId": 42,
      "outputId": 0,
      "inputModuleId": 33,
      "inputId": 1,
      "color": "#c91847"
    },
    {
      "id": 55,
      "outputModuleId": 49,
      "outputId": 0,
      "inputModuleId": 48,
      "inputId": 0,
      "color": "#c9b70e"
    },
    {
      "id": 56,
      "outputModuleId": 48,
      "outputId": 0,
      "inputModuleId": 41,
      "inputId": 0,
      "color": "#0c8e15"
    },
    {
      "id": 57,
      "outputModuleId": 51,
      "outputId": 0,
      "inputModuleId": 48,
      "inputId": 1,
      "color": "#0986ad"
    },
    {
      "id": 58,
      "outputModuleId": 51,
      "outputId": 1,
      "inputModuleId": 48,
      "inputId": 2,
      "color": "#c9b70e"
    },
    {
      "id": 59,
      "outputModuleId": 52,
      "outputId": 0,
      "inputModuleId": 51,
      "inputId": 0,
      "color": "#0c8e15"
    },
    {
      "id": 60,
      "outputModuleId": 52,
      "outputId": 0,
      "inputModuleId": 51,
      "inputId": 1,
      "color": "#c91847"
    }
  ]
}