{
  "version": "1.1.6",
  "modules": [
    {
      "id": 0,
      "plugin": "4msCompany",
      "version": "1.0.0",
      "model": "metaModuleHubModule",
      "params": [
        {
          "id": 0,
          "value": 0.0
        },
        {
          "id": 1,
          "value": 0.0
        },
        {
          "id": 2,
          "value": 0.0
        },
        {
          "id": 3,
          "value": 0.0
        },
        {
          "id": 4,
          "value": 0.0
        },
        {
          "id": 5,
          "value": 0.0
        },
        {
          "id": 6,
          "value": 0.0
        },
        {
          "id": 7,
          "value": 0.0
        },
        {
          "id": 8,
          "value": 0.0
        }
      ],
      "leftModuleId": 10,
      "rightModuleId": 5,
      "data": {
        "Mappings": [
          {
            "DstModID": 5,
            "DstObjID": 0,
            "DstObjType": "Knob",
            "SrcModID": 0,
            "SrcObjID": 0,
            "SrcObjType": "Knob"
          },
          {
            "DstModID": 5,
            "DstObjID": 1,
            "DstObjType": "Knob",
            "SrcModID": 0,
            "SrcObjID": 1,
            "SrcObjType": "Knob"
          },
          {
            "DstModID": 5,
            "DstObjID": 2,
            "DstObjType": "Knob",
            "SrcModID": 0,
            "SrcObjID": 2,
            "SrcObjType": "Knob"
          },
          {
            "DstModID": 5,
            "DstObjID": 3,
            "DstObjType": "Knob",
            "SrcModID": 0,
            "SrcObjID": 3,
            "SrcObjType": "Knob"
          },
          {
            "DstModID": 5,
            "DstObjID": 4,
            "DstObjType": "Knob",
            "SrcModID": 0,
            "SrcObjID": 4,
            "SrcObjType": "Knob"
          },
          {
            "DstModID": 5,
            "DstObjID": 5,
            "DstObjType": "Knob",
            "SrcModID": 0,
            "SrcObjID": 5,
            "SrcObjType": "Knob"
          },
          {
            "DstModID": 5,
            "DstObjID": 6,
            "DstObjType": "Knob",
            "SrcModID": 0,
            "SrcObjID": 6,
            "SrcObjType": "Knob"
          },
          {
            "DstModID": 5,
            "DstObjID": 7,
            "DstObjType": "Knob",
            "SrcModID": 0,
            "SrcObjID": 7,
            "SrcObjType": "Knob"
          },
          {
            "DstModID": 5,
            "DstObjID": 0,
            "DstObjType": "OutputJack",
            "SrcModID": 0,
            "SrcObjID": 0,
            "SrcObjType": "OutputJack"
          },
          {
            "DstModID": 5,
            "DstObjID": 1,
            "DstObjType": "OutputJack",
            "SrcModID": 0,
            "SrcObjID": 1,
            "SrcObjType": "OutputJack"
          }
        ],
        "PatchName": "test_stereomixerCore"
      },
      "pos": [
        31,
        0
      ]
    },
    {
      "id": 3,
      "plugin": "Fundamental",
      "version": "1.4.0",
      "model": "Scope",
      "params": [
        {
          "id": 0,
          "value": 0.0
        },
        {
          "id": 1,
          "value": 0.0
        },
        {
          "id": 2,
          "value": 0.0
        },
        {
          "id": 3,
          "value": 0.0
        },
        {
          "id": 4,
          "value": 14.0
        },
        {
          "id": 5,
          "value": 0.0
        },
        {
          "id": 6,
          "value": 0.0
        },
        {
          "id": 7,
          "value": 0.0
        }
      ],
      "data": {
        "lissajous": 0,
        "external": 0
      },
      "pos": [
        0,
        0
      ]
    },
    {
      "id": 5,
      "plugin": "4msCompany",
      "version": "1.0.0",
      "model": "STEREOMIXER",
      "params": [
        {
          "id": 0,
          "value": 0.0
        },
        {
          "id": 1,
          "value": 0.0
        },
        {
          "id": 2,
          "value": 0.0
        },
        {
          "id": 3,
          "value": 1.0
        },
        {
          "id": 4,
          "value": 0.496499926
        },
        {
          "id": 5,
          "value": 0.497999966
        },
        {
          "id": 6,
          "value": 0.332499921
        },
        {
          "id": 7,
          "value": 0.725999951
        }
      ],
      "leftModuleId": 0,
      "pos": [
        47,
        0
      ]
    },
    {
      "id": 6,
      "plugin": "4msCompany",
      "version": "1.0.0",
      "model": "lfo",
      "params": [
        {
          "id": 0,
          "value": 0.250499964
        },
        {
          "id": 1,
          "value": 0.0
        },
        {
          "id": 2,
          "value": 1.0
        }
      ],
      "rightModuleId": 8,
      "pos": [
        15,
        0
      ]
    },
    {
      "id": 8,
      "plugin": "4msCompany",
      "version": "1.0.0",
      "model": "lfo",
      "params": [
        {
          "id": 0,
          "value": 0.374999911
        },
        {
          "id": 1,
          "value": 0.0
        },
        {
          "id": 2,
          "value": 1.0
        }
      ],
      "leftModuleId": 6,
      "rightModuleId": 9,
      "pos": [
        19,
        0
      ]
    },
    {
      "id": 9,
      "plugin": "4msCompany",
      "version": "1.0.0",
      "model": "lfo",
      "params": [
        {
          "id": 0,
          "value": 0.520500064
        },
        {
          "id": 1,
          "value": 0.0
        },
        {
          "id": 2,
          "value": 1.0
        }
      ],
      "leftModuleId": 8,
      "rightModuleId": 10,
      "pos": [
        23,
        0
      ]
    },
    {
      "id": 10,
      "plugin": "4msCompany",
      "version": "1.0.0",
      "model": "lfo",
      "params": [
        {
          "id": 0,
          "value": 0.844499946
        },
        {
          "id": 1,
          "value": 0.0
        },
        {
          "id": 2,
          "value": 1.0
        }
      ],
      "leftModuleId": 9,
      "rightModuleId": 0,
      "pos": [
        27,
        0
      ]
    }
  ],
  "cables": [
    {
      "id": 6,
      "outputModuleId": 6,
      "outputId": 0,
      "inputModuleId": 5,
      "inputId": 0,
      "color": "#0986ad"
    },
    {
      "id": 11,
      "outputModuleId": 8,
      "outputId": 0,
      "inputModuleId": 5,
      "inputId": 1,
      "color": "#0c8e15"
    },
    {
      "id": 12,
      "outputModuleId": 9,
      "outputId": 0,
      "inputModuleId": 5,
      "inputId": 2,
      "color": "#c91847"
    },
    {
      "id": 13,
      "outputModuleId": 10,
      "outputId": 0,
      "inputModuleId": 5,
      "inputId": 3,
      "color": "#0986ad"
    },
    {
      "id": 16,
      "outputModuleId": 5,
      "outputId": 0,
      "inputModuleId": 3,
      "inputId": 0,
      "color": "#c91847"
    },
    {
      "id": 17,
      "outputModuleId": 5,
      "outputId": 1,
      "inputModuleId": 3,
      "inputId": 1,
      "color": "#0c8e15"
    }
  ]
}