{
  "version": "1.1.6",
  "modules": [
    {
      "id": 30,
      "plugin": "4msCompany",
      "version": "1.0.0",
      "model": "metaModuleHubModule",
      "params": [
        {
          "id": 0,
          "value": 0.0
        },
        {
          "id": 1,
          "value": 0.0
        },
        {
          "id": 2,
          "value": 0.0
        },
        {
          "id": 3,
          "value": 0.0
        },
        {
          "id": 4,
          "value": 0.0
        },
        {
          "id": 5,
          "value": 0.0
        },
        {
          "id": 6,
          "value": 0.0
        },
        {
          "id": 7,
          "value": 0.0
        },
        {
          "id": 8,
          "value": 0.0
        }
      ],
      "leftModuleId": 53,
      "rightModuleId": 33,
      "data": {
        "Mappings": [
          {
            "DstModID": 53,
            "DstObjID": 0,
            "DstObjType": "Knob",
            "SrcModID": 30,
            "SrcObjID": 0,
            "SrcObjType": "Knob"
          },
          {
            "DstModID": 55,
            "DstObjID": 2,
            "DstObjType": "Knob",
            "SrcModID": 30,
            "SrcObjID": 1,
            "SrcObjType": "Knob"
          },
          {
            "DstModID": 53,
            "DstObjID": 0,
            "DstObjType": "OutputJack",
            "SrcModID": 30,
            "SrcObjID": 0,
            "SrcObjType": "OutputJack"
          },
          {
            "DstModID": 56,
            "DstObjID": 1,
            "DstObjType": "OutputJack",
            "SrcModID": 30,
            "SrcObjID": 1,
            "SrcObjType": "OutputJack"
          }
        ],
        "PatchName": "test_clkdividerCore"
      },
      "pos": [
        16,
        0
      ]
    },
    {
      "id": 33,
      "plugin": "Fundamental",
      "version": "1.4.0",
      "model": "Scope",
      "params": [
        {
          "id": 0,
          "value": 0.0
        },
        {
          "id": 1,
          "value": 0.0
        },
        {
          "id": 2,
          "value": 0.0
        },
        {
          "id": 3,
          "value": 0.0
        },
        {
          "id": 4,
          "value": 7.42500067
        },
        {
          "id": 5,
          "value": 0.0
        },
        {
          "id": 6,
          "value": 2.00999808
        },
        {
          "id": 7,
          "value": 0.0
        }
      ],
      "leftModuleId": 30,
      "rightModuleId": 41,
      "data": {
        "lissajous": 0,
        "external": 0
      },
      "pos": [
        32,
        0
      ]
    },
    {
      "id": 38,
      "plugin": "Core",
      "version": "1.1.6",
      "model": "Notes",
      "params": [],
      "leftModuleId": 42,
      "text": "CLOCK DIVIDER CORE TEST\n\nKnob A - Divison\nKnob B - CV Amount\nAudio Out L is divided output\nAudio Out R is main clock\n\nWith Knob B down:\n\nAdjust Division amount one division at a time to verify divided frequency\n\nKnob A at 0% should be divide by 1, 100% is divide by 16\n\nThen turn Knob B up. Should be.. seemingly random? Should reduce and increase division from what Knob A sets.\n",
      "pos": [
        55,
        0
      ]
    },
    {
      "id": 41,
      "plugin": "Fundamental",
      "version": "1.4.0",
      "model": "Split",
      "params": [],
      "leftModuleId": 33,
      "rightModuleId": 42,
      "pos": [
        45,
        0
      ]
    },
    {
      "id": 42,
      "plugin": "Fundamental",
      "version": "1.4.0",
      "model": "Split",
      "params": [],
      "leftModuleId": 41,
      "rightModuleId": 38,
      "pos": [
        50,
        0
      ]
    },
    {
      "id": 53,
      "plugin": "4msCompany",
      "version": "1.0.0",
      "model": "CLKDIVIDER",
      "params": [
        {
          "id": 0,
          "value": 0.0
        }
      ],
      "leftModuleId": 54,
      "rightModuleId": 30,
      "pos": [
        12,
        0
      ]
    },
    {
      "id": 54,
      "plugin": "4msCompany",
      "version": "1.0.0",
      "model": "lfo",
      "params": [
        {
          "id": 0,
          "value": 0.511500061
        },
        {
          "id": 1,
          "value": 0.0
        },
        {
          "id": 2,
          "value": 1.0
        }
      ],
      "leftModuleId": 55,
      "rightModuleId": 53,
      "pos": [
        8,
        0
      ]
    },
    {
      "id": 55,
      "plugin": "4msCompany",
      "version": "1.0.0",
      "model": "lfo",
      "params": [
        {
          "id": 0,
          "value": 0.773999929
        },
        {
          "id": 1,
          "value": 0.0
        },
        {
          "id": 2,
          "value": 0.0
        }
      ],
      "leftModuleId": 56,
      "rightModuleId": 54,
      "pos": [
        4,
        0
      ]
    },
    {
      "id": 56,
      "plugin": "4msCompany",
      "version": "1.0.0",
      "model": "logic",
      "params": [],
      "rightModuleId": 55,
      "pos": [
        0,
        0
      ]
    }
  ],
  "cables": [
    {
      "id": 46,
      "outputModuleId": 41,
      "outputId": 0,
      "inputModuleId": 33,
      "inputId": 0,
      "color": "#c9b70e"
    },
    {
      "id": 48,
      "outputModuleId": 42,
      "outputId": 0,
      "inputModuleId": 33,
      "inputId": 1,
      "color": "#c91847"
    },
    {
      "id": 62,
      "outputModuleId": 53,
      "outputId": 0,
      "inputModuleId": 41,
      "inputId": 0,
      "color": "#0c8e15"
    },
    {
      "id": 63,
      "outputModuleId": 55,
      "outputId": 0,
      "inputModuleId": 53,
      "inputId": 1,
      "color": "#c91847"
    },
    {
      "id": 65,
      "outputModuleId": 54,
      "outputId": 0,
      "inputModuleId": 56,
      "inputId": 0,
      "color": "#0c8e15"
    },
    {
      "id": 66,
      "outputModuleId": 56,
      "outputId": 1,
      "inputModuleId": 42,
      "inputId": 0,
      "color": "#c91847"
    },
    {
      "id": 67,
      "outputModuleId": 56,
      "outputId": 1,
      "inputModuleId": 53,
      "inputId": 0,
      "color": "#0986ad"
    },
    {
      "id": 69,
      "outputModuleId": 53,
      "outputId": 0,
      "inputModuleId": 33,
      "inputId": 2,
      "color": "#0c8e15"
    }
  ]
}