{
  "version": "1.1.6",
  "modules": [
    {
      "id": 16,
      "plugin": "4msCompany",
      "version": "1.0.0",
      "model": "metaModuleHubModule",
      "params": [
        {
          "id": 0,
          "value": 0.0
        },
        {
          "id": 1,
          "value": 0.0
        },
        {
          "id": 2,
          "value": 0.0
        },
        {
          "id": 3,
          "value": 0.0
        },
        {
          "id": 4,
          "value": 0.0
        },
        {
          "id": 5,
          "value": 0.0
        },
        {
          "id": 6,
          "value": 0.0
        },
        {
          "id": 7,
          "value": 0.0
        },
        {
          "id": 8,
          "value": 0.0
        }
      ],
      "leftModuleId": 19,
      "rightModuleId": 20,
      "data": {
        "Mappings": [
          {
            "DstModID": 19,
            "DstObjID": 0,
            "DstObjType": "OutputJack",
            "SrcModID": 16,
            "SrcObjID": 2,
            "SrcObjType": "OutputJack"
          },
          {
            "DstModID": 19,
            "DstObjID": 3,
            "DstObjType": "OutputJack",
            "SrcModID": 16,
            "SrcObjID": 3,
            "SrcObjType": "OutputJack"
          },
          {
            "DstModID": 19,
            "DstObjID": 1,
            "DstObjType": "OutputJack",
            "SrcModID": 16,
            "SrcObjID": 0,
            "SrcObjType": "OutputJack"
          },
          {
            "DstModID": 19,
            "DstObjID": 2,
            "DstObjType": "OutputJack",
            "SrcModID": 16,
            "SrcObjID": 1,
            "SrcObjType": "OutputJack"
          },
          {
            "DstModID": 19,
            "DstObjID": 0,
            "DstObjType": "Knob",
            "SrcModID": 16,
            "SrcObjID": 0,
            "SrcObjType": "Knob"
          },
          {
            "DstModID": 22,
            "DstObjID": 1,
            "DstObjType": "Knob",
            "SrcModID": 16,
            "SrcObjID": 4,
            "SrcObjType": "Knob"
          },
          {
            "DstModID": 19,
            "DstObjID": 1,
            "DstObjType": "Knob",
            "SrcModID": 16,
            "SrcObjID": 1,
            "SrcObjType": "Knob"
          },
          {
            "DstModID": 21,
            "DstObjID": 1,
            "DstObjType": "Knob",
            "SrcModID": 16,
            "SrcObjID": 5,
            "SrcObjType": "Knob"
          },
          {
            "DstModID": 19,
            "DstObjID": 2,
            "DstObjType": "Knob",
            "SrcModID": 16,
            "SrcObjID": 2,
            "SrcObjType": "Knob"
          },
          {
            "DstModID": 21,
            "DstObjID": 0,
            "DstObjType": "Knob",
            "SrcModID": 16,
            "SrcObjID": 6,
            "SrcObjType": "Knob"
          },
          {
            "DstModID": 22,
            "DstObjID": 0,
            "DstObjType": "Knob",
            "SrcModID": 16,
            "SrcObjID": 3,
            "SrcObjType": "Knob"
          }
        ],
        "PatchName": "test_multilfoCore"
      },
      "pos": [
        16,
        0
      ]
    },
    {
      "id": 19,
      "plugin": "4msCompany",
      "version": "1.0.0",
      "model": "MULTILFO",
      "params": [
        {
          "id": 0,
          "value": 0.0
        },
        {
          "id": 1,
          "value": 0.0
        },
        {
          "id": 2,
          "value": 0.0
        }
      ],
      "leftModuleId": 21,
      "rightModuleId": 16,
      "pos": [
        8,
        0
      ]
    },
    {
      "id": 20,
      "plugin": "Core",
      "version": "1.1.6",
      "model": "Notes",
      "params": [],
      "leftModuleId": 16,
      "text": "Multi LFO Core Test\n\nKnobs A and a control LFO rate\nA@100%, B@100%: ~350Hz\nA@0%, B@100%: 3.56Hz\nA@100%, B@0%: 10Hz\nA@0%,  B@0%: ~0.1Hz\n\nKnobs B and b control LFO phase\n\nKnobs C and c control pulsewidth:\nWith either knob at 0%, the other knob will make PW go from ~0% to 100%\n\nWhen Knob D is above ~15% the LFO will reset\n\nSine waveform is on CV Out 1\nPulse waveform is on CV Out 2\nSaw waveform is on Audio OUT L\nInverted Saw waveform is on Audio OUT R\n",
      "pos": [
        32,
        0
      ]
    },
    {
      "id": 21,
      "plugin": "4msCompany",
      "version": "1.0.0",
      "model": "attenuvert",
      "params": [
        {
          "id": 0,
          "value": 0.0
        },
        {
          "id": 1,
          "value": 0.0
        }
      ],
      "leftModuleId": 22,
      "rightModuleId": 19,
      "pos": [
        4,
        0
      ]
    },
    {
      "id": 22,
      "plugin": "4msCompany",
      "version": "1.0.0",
      "model": "attenuvert",
      "params": [
        {
          "id": 0,
          "value": 0.0
        },
        {
          "id": 1,
          "value": 0.0
        }
      ],
      "rightModuleId": 21,
      "pos": [
        0,
        0
      ]
    }
  ],
  "cables": [
    {
      "id": 1,
      "outputModuleId": 22,
      "outputId": 0,
      "inputModuleId": 19,
      "inputId": 3,
      "color": "#c91847"
    },
    {
      "id": 2,
      "outputModuleId": 21,
      "outputId": 0,
      "inputModuleId": 19,
      "inputId": 2,
      "color": "#0986ad"
    },
    {
      "id": 3,
      "outputModuleId": 22,
      "outputId": 1,
      "inputModuleId": 19,
      "inputId": 0,
      "color": "#c9b70e"
    },
    {
      "id": 4,
      "outputModuleId": 21,
      "outputId": 1,
      "inputModuleId": 19,
      "inputId": 1,
      "color": "#0c8e15"
    }
  ]
}