{
  "version": "1.1.6",
  "modules": [
    {
      "id": 30,
      "plugin": "4msCompany",
      "version": "1.0.0",
      "model": "metaModuleHubModule",
      "params": [
        {
          "id": 0,
          "value": 1.0
        },
        {
          "id": 1,
          "value": 0.0
        },
        {
          "id": 2,
          "value": 0.0
        },
        {
          "id": 3,
          "value": 0.0
        },
        {
          "id": 4,
          "value": 0.0
        },
        {
          "id": 5,
          "value": 0.0
        },
        {
          "id": 6,
          "value": 0.0
        },
        {
          "id": 7,
          "value": 0.0
        },
        {
          "id": 8,
          "value": 0.0
        }
      ],
      "leftModuleId": 72,
      "rightModuleId": 33,
      "data": {
        "Mappings": [
          {
            "DstModID": 72,
            "DstObjID": 0,
            "DstObjType": "OutputJack",
            "SrcModID": 30,
            "SrcObjID": 2,
            "SrcObjType": "OutputJack"
          },
          {
            "DstModID": 72,
            "DstObjID": 1,
            "DstObjType": "OutputJack",
            "SrcModID": 30,
            "SrcObjID": 3,
            "SrcObjType": "OutputJack"
          },
          {
            "DstModID": 72,
            "DstObjID": 2,
            "DstObjType": "OutputJack",
            "SrcModID": 30,
            "SrcObjID": 0,
            "SrcObjType": "OutputJack"
          },
          {
            "DstModID": 73,
            "DstObjID": 0,
            "DstObjType": "Knob",
            "SrcModID": 30,
            "SrcObjID": 0,
            "SrcObjType": "Knob"
          },
          {
            "DstModID": 73,
            "DstObjID": 1,
            "DstObjType": "Knob",
            "SrcModID": 30,
            "SrcObjID": 1,
            "SrcObjType": "Knob"
          }
        ],
        "PatchName": "test_logicCore"
      },
      "pos": [
        8,
        0
      ]
    },
    {
      "id": 33,
      "plugin": "Fundamental",
      "version": "1.4.0",
      "model": "Scope",
      "params": [
        {
          "id": 0,
          "value": 0.0
        },
        {
          "id": 1,
          "value": 0.0
        },
        {
          "id": 2,
          "value": 0.0
        },
        {
          "id": 3,
          "value": 0.0
        },
        {
          "id": 4,
          "value": 12.4449997
        },
        {
          "id": 5,
          "value": 0.0
        },
        {
          "id": 6,
          "value": 0.809998631
        },
        {
          "id": 7,
          "value": 0.0
        }
      ],
      "leftModuleId": 30,
      "rightModuleId": 41,
      "data": {
        "lissajous": 0,
        "external": 1
      },
      "pos": [
        24,
        0
      ]
    },
    {
      "id": 38,
      "plugin": "Core",
      "version": "1.1.6",
      "model": "Notes",
      "params": [],
      "leftModuleId": 42,
      "text": "LOGIC CORE MODULE\n\nKnob A - Input 1 voltage\nKnob B - Input 2 voltage\n\nCV Out 1 - AND Output\nCV Out 2 - OR Output\nAudio Out L - XOR Output\n\nTurn Knobs A and B to the maximum value. This should produce a high output on the AND out, all other combinations should produce low output.\n\nOR output should produce a high output if either input is high.\n\nXOR should produce a high signal if only one input is high\n",
      "pos": [
        47,
        0
      ]
    },
    {
      "id": 41,
      "plugin": "Fundamental",
      "version": "1.4.0",
      "model": "Split",
      "params": [],
      "leftModuleId": 33,
      "rightModuleId": 42,
      "pos": [
        37,
        0
      ]
    },
    {
      "id": 42,
      "plugin": "Fundamental",
      "version": "1.4.0",
      "model": "Split",
      "params": [],
      "leftModuleId": 41,
      "rightModuleId": 38,
      "pos": [
        42,
        0
      ]
    },
    {
      "id": 72,
      "plugin": "4msCompany",
      "version": "1.0.0",
      "model": "logic",
      "params": [],
      "leftModuleId": 73,
      "rightModuleId": 30,
      "pos": [
        4,
        0
      ]
    },
    {
      "id": 73,
      "plugin": "4msCompany",
      "version": "1.0.0",
      "model": "VOLTAGESOURCE",
      "params": [
        {
          "id": 0,
          "value": 0.0
        },
        {
          "id": 1,
          "value": 1.0
        }
      ],
      "rightModuleId": 72,
      "pos": [
        0,
        0
      ]
    }
  ],
  "cables": [
    {
      "id": 46,
      "outputModuleId": 41,
      "outputId": 0,
      "inputModuleId": 33,
      "inputId": 0,
      "color": "#c9b70e"
    },
    {
      "id": 48,
      "outputModuleId": 42,
      "outputId": 0,
      "inputModuleId": 33,
      "inputId": 1,
      "color": "#c91847"
    },
    {
      "id": 49,
      "outputModuleId": 73,
      "outputId": 0,
      "inputModuleId": 72,
      "inputId": 0,
      "color": "#c91847"
    },
    {
      "id": 50,
      "outputModuleId": 73,
      "outputId": 1,
      "inputModuleId": 72,
      "inputId": 1,
      "color": "#0986ad"
    },
    {
      "id": 51,
      "outputModuleId": 72,
      "outputId": 0,
      "inputModuleId": 41,
      "inputId": 0,
      "color": "#0c8e15"
    }
  ]
}