{
  "version": "1.1.6",
  "modules": [
    {
      "id": 97,
      "plugin": "4msCompany",
      "version": "1.0.0",
      "model": "metaModuleHubModule",
      "params": [
        {
          "id": 0,
          "value": 0.0
        },
        {
          "id": 1,
          "value": 0.0
        },
        {
          "id": 2,
          "value": 0.0
        },
        {
          "id": 3,
          "value": 0.0
        },
        {
          "id": 4,
          "value": 0.0
        },
        {
          "id": 5,
          "value": 0.0
        },
        {
          "id": 6,
          "value": 0.0
        },
        {
          "id": 7,
          "value": 0.0
        },
        {
          "id": 8,
          "value": 0.0
        }
      ],
      "leftModuleId": 99,
      "data": {
        "Mappings": [
          {
            "DstModID": 99,
            "DstObjID": 1,
            "DstObjType": "OutputJack",
            "SrcModID": 97,
            "SrcObjID": 1,
            "SrcObjType": "OutputJack"
          },
          {
            "DstModID": 99,
            "DstObjID": 3,
            "DstObjType": "OutputJack",
            "SrcModID": 97,
            "SrcObjID": 0,
            "SrcObjType": "OutputJack"
          },
          {
            "DstModID": 100,
            "DstObjID": 1,
            "DstObjType": "OutputJack",
            "SrcModID": 97,
            "SrcObjID": 2,
            "SrcObjType": "OutputJack"
          }
        ],
        "PatchName": "unittest_outmap_overlapping_cable"
      },
      "pos": [
        16,
        0
      ]
    },
    {
      "id": 99,
      "plugin": "4msCompany",
      "version": "1.0.0",
      "model": "MULTILFO",
      "params": [
        {
          "id": 0,
          "value": 0.0
        },
        {
          "id": 1,
          "value": 0.0
        },
        {
          "id": 2,
          "value": 0.0
        }
      ],
      "leftModuleId": 100,
      "rightModuleId": 97,
      "pos": [
        8,
        0
      ]
    },
    {
      "id": 100,
      "plugin": "4msCompany",
      "version": "1.0.0",
      "model": "MULTILFO",
      "params": [
        {
          "id": 0,
          "value": 0.0
        },
        {
          "id": 1,
          "value": 0.0
        },
        {
          "id": 2,
          "value": 0.0
        }
      ],
      "rightModuleId": 99,
      "pos": [
        0,
        0
      ]
    }
  ],
  "cables": [
    {
      "id": 1,
      "outputModuleId": 99,
      "outputId": 3,
      "inputModuleId": 100,
      "inputId": 0,
      "color": "#0c8e15"
    },
    {
      "id": 3,
      "outputModuleId": 99,
      "outputId": 1,
      "inputModuleId": 100,
      "inputId": 2,
      "color": "#0986ad"
    },
    {
      "id": 2,
      "outputModuleId": 99,
      "outputId": 1,
      "inputModuleId": 100,
      "inputId": 1,
      "color": "#c91847"
    }
  ]
}