{
  "version": "1.dev.2db08f1",
  "modules": [
    {
      "id": 13,
      "plugin": "4msCompany",
      "version": "1.0.0",
      "model": "QCD",
      "params": [
        {
          "id": 0,
          "value": 0.0
        },
        {
          "id": 1,
          "value": 0.0
        },
        {
          "id": 2,
          "value": 0.0
        },
        {
          "id": 3,
          "value": 0.0
        },
        {
          "id": 4,
          "value": 0.0
        }
      ],
      "leftModuleId": 14,
      "pos": [
        12,
        0
      ]
    },
    {
      "id": 14,
      "plugin": "4msCompany",
      "version": "1.0.0",
      "model": "QCDEXP",
      "params": [
        {
          "id": 0,
          "value": 0.0
        },
        {
          "id": 1,
          "value": 0.0
        },
        {
          "id": 2,
          "value": 0.0
        },
        {
          "id": 3,
          "value": 0.0
        },
        {
          "id": 4,
          "value": 0.0
        },
        {
          "id": 5,
          "value": 0.0
        },
        {
          "id": 6,
          "value": 0.0
        },
        {
          "id": 7,
          "value": 0.5
        },
        {
          "id": 8,
          "value": 0.0
        },
        {
          "id": 9,
          "value": 0.519999921
        },
        {
          "id": 10,
          "value": 0.5
        },
        {
          "id": 11,
          "value": 0.494499743
        }
      ],
      "rightModuleId": 13,
      "pos": [
        0,
        0
      ]
    },
    {
      "id": 15,
      "plugin": "4msCompany",
      "version": "1.0.0",
      "model": "SCM",
      "params": [
        {
          "id": 0,
          "value": 0.0
        },
        {
          "id": 1,
          "value": 0.5
        },
        {
          "id": 2,
          "value": 0.25
        },
        {
          "id": 3,
          "value": 0.25
        },
        {
          "id": 4,
          "value": 0.5
        },
        {
          "id": 5,
          "value": 0.0
        },
        {
          "id": 6,
          "value": 0.0
        }
      ],
      "pos": [
        25,
        0
      ]
    },
    {
      "id": 16,
      "plugin": "4msCompany",
      "version": "1.0.0",
      "model": "PanelMedium",
      "params": [
        {
          "id": 0,
          "value": 0.0
        },
        {
          "id": 1,
          "value": 0.0
        },
        {
          "id": 2,
          "value": 0.0
        },
        {
          "id": 3,
          "value": 0.0
        },
        {
          "id": 4,
          "value": 0.0
        },
        {
          "id": 5,
          "value": 0.0
        },
        {
          "id": 6,
          "value": 0.0
        },
        {
          "id": 7,
          "value": 0.0
        },
        {
          "id": 8,
          "value": 0.0
        },
        {
          "id": 9,
          "value": 0.0
        },
        {
          "id": 10,
          "value": 0.0
        },
        {
          "id": 11,
          "value": 0.0
        },
        {
          "id": 12,
          "value": 0.0
        }
      ],
      "data": {
        "Mappings": [
          {
            "DstModID": 14,
            "DstObjID": 1,
            "DstObjType": "OutputJack",
            "SrcModID": 16,
            "SrcObjID": 1,
            "SrcObjType": "OutputJack",
            "RangeMin": 0.0,
            "RangeMax": 1.0,
            "AliasName": ""
          },
          {
            "DstModID": 14,
            "DstObjID": 0,
            "DstObjType": "OutputJack",
            "SrcModID": 16,
            "SrcObjID": 0,
            "SrcObjType": "OutputJack",
            "RangeMin": 0.0,
            "RangeMax": 1.0,
            "AliasName": ""
          },
          {
            "DstModID": 14,
            "DstObjID": 2,
            "DstObjType": "OutputJack",
            "SrcModID": 16,
            "SrcObjID": 2,
            "SrcObjType": "OutputJack",
            "RangeMin": 0.0,
            "RangeMax": 1.0,
            "AliasName": ""
          },
          {
            "DstModID": 14,
            "DstObjID": 3,
            "DstObjType": "OutputJack",
            "SrcModID": 16,
            "SrcObjID": 3,
            "SrcObjType": "OutputJack",
            "RangeMin": 0.0,
            "RangeMax": 1.0,
            "AliasName": ""
          },
          {
            "DstModID": 13,
            "DstObjID": 0,
            "DstObjType": "Knob",
            "SrcModID": 16,
            "SrcObjID": 0,
            "SrcObjType": "Knob",
            "RangeMin": 0.0,
            "RangeMax": 1.0,
            "AliasName": ""
          },
          {
            "DstModID": 13,
            "DstObjID": 1,
            "DstObjType": "Knob",
            "SrcModID": 16,
            "SrcObjID": 1,
            "SrcObjType": "Knob",
            "RangeMin": 0.0,
            "RangeMax": 1.0,
            "AliasName": ""
          },
          {
            "DstModID": 13,
            "DstObjID": 2,
            "DstObjType": "Knob",
            "SrcModID": 16,
            "SrcObjID": 2,
            "SrcObjType": "Knob",
            "RangeMin": 0.0,
            "RangeMax": 1.0,
            "AliasName": ""
          },
          {
            "DstModID": 13,
            "DstObjID": 3,
            "DstObjType": "Knob",
            "SrcModID": 16,
            "SrcObjID": 3,
            "SrcObjType": "Knob",
            "RangeMin": 0.0,
            "RangeMax": 1.0,
            "AliasName": ""
          },
          {
            "DstModID": 14,
            "DstObjID": 1,
            "DstObjType": "Knob",
            "SrcModID": 16,
            "SrcObjID": 4,
            "SrcObjType": "Knob",
            "RangeMin": 0.0,
            "RangeMax": 1.0,
            "AliasName": ""
          },
          {
            "DstModID": 14,
            "DstObjID": 4,
            "DstObjType": "Knob",
            "SrcModID": 16,
            "SrcObjID": 5,
            "SrcObjType": "Knob",
            "RangeMin": 0.0,
            "RangeMax": 1.0,
            "AliasName": ""
          },
          {
            "DstModID": 14,
            "DstObjID": 0,
            "DstObjType": "Knob",
            "SrcModID": 16,
            "SrcObjID": 6,
            "SrcObjType": "Knob",
            "RangeMin": 0.0,
            "RangeMax": 1.0,
            "AliasName": ""
          },
          {
            "DstModID": 14,
            "DstObjID": 3,
            "DstObjType": "Knob",
            "SrcModID": 16,
            "SrcObjID": 7,
            "SrcObjType": "Knob",
            "RangeMin": 0.0,
            "RangeMax": 1.0,
            "AliasName": ""
          },
          {
            "DstModID": 14,
            "DstObjID": 6,
            "DstObjType": "Knob",
            "SrcModID": 16,
            "SrcObjID": 8,
            "SrcObjType": "Knob",
            "RangeMin": 0.0,
            "RangeMax": 1.0,
            "AliasName": ""
          },
          {
            "DstModID": 14,
            "DstObjID": 2,
            "DstObjType": "Knob",
            "SrcModID": 16,
            "SrcObjID": 9,
            "SrcObjType": "Knob",
            "RangeMin": 0.0,
            "RangeMax": 1.0,
            "AliasName": ""
          },
          {
            "DstModID": 14,
            "DstObjID": 5,
            "DstObjType": "Knob",
            "SrcModID": 16,
            "SrcObjID": 10,
            "SrcObjType": "Knob",
            "RangeMin": 0.0,
            "RangeMax": 1.0,
            "AliasName": ""
          },
          {
            "DstModID": 14,
            "DstObjID": 8,
            "DstObjType": "Knob",
            "SrcModID": 16,
            "SrcObjID": 11,
            "SrcObjType": "Knob",
            "RangeMin": 0.0,
            "RangeMax": 1.0,
            "AliasName": ""
          }
        ],
        "PatchName": "Non-linear Gate Sequencer",
        "PatchDesc": "Gates off the grid"
      },
      "pos": [
        39,
        0
      ]
    }
  ],
  "cables": [
    {
      "id": 10,
      "outputModuleId": 13,
      "outputId": 0,
      "inputModuleId": 15,
      "inputId": 0,
      "color": "#c91847"
    },
    {
      "id": 12,
      "outputModuleId": 13,
      "outputId": 2,
      "inputModuleId": 13,
      "inputId": 7,
      "color": "#c91847"
    },
    {
      "id": 13,
      "outputModuleId": 13,
      "outputId": 3,
      "inputModuleId": 13,
      "inputId": 10,
      "color": "#0986ad"
    },
    {
      "id": 14,
      "outputModuleId": 13,
      "outputId": 4,
      "inputModuleId": 13,
      "inputId": 1,
      "color": "#c9b70e"
    },
    {
      "id": 11,
      "outputModuleId": 13,
      "outputId": 1,
      "inputModuleId": 13,
      "inputId": 4,
      "color": "#0c8e15"
    },
    {
      "id": 15,
      "outputModuleId": 13,
      "outputId": 1,
      "inputModuleId": 14,
      "inputId": 1,
      "color": "#0c8e15"
    },
    {
      "id": 16,
      "outputModuleId": 13,
      "outputId": 2,
      "inputModuleId": 14,
      "inputId": 2,
      "color": "#c91847"
    },
    {
      "id": 17,
      "outputModuleId": 13,
      "outputId": 3,
      "inputModuleId": 14,
      "inputId": 3,
      "color": "#0986ad"
    },
    {
      "id": 18,
      "outputModuleId": 13,
      "outputId": 4,
      "inputModuleId": 14,
      "inputId": 0,
      "color": "#c9b70e"
    }
  ]
}