{
  "version": "1.dev.2db08f1",
  "modules": [
    {
      "id": 18,
      "plugin": "4msCompany",
      "version": "1.0.0",
      "model": "DLD",
      "params": [
        {
          "id": 0,
          "value": 0.5
        },
        {
          "id": 1,
          "value": 0.5
        },
        {
          "id": 2,
          "value": 0.5
        },
        {
          "id": 3,
          "value": 0.5
        },
        {
          "id": 4,
          "value": 1.0
        },
        {
          "id": 5,
          "value": 0.875
        },
        {
          "id": 6,
          "value": 0.875
        },
        {
          "id": 7,
          "value": 1.0
        },
        {
          "id": 8,
          "value": 0.0
        },
        {
          "id": 9,
          "value": 0.0
        },
        {
          "id": 10,
          "value": 0.0
        },
        {
          "id": 11,
          "value": 0.0
        },
        {
          "id": 12,
          "value": 0.0
        },
        {
          "id": 13,
          "value": 0.0
        },
        {
          "id": 14,
          "value": 0.0
        }
      ],
      "rightModuleId": 21,
      "pos": [
        0,
        0
      ]
    },
    {
      "id": 20,
      "plugin": "4msCompany",
      "version": "1.0.0",
      "model": "Freeverb",
      "params": [
        {
          "id": 0,
          "value": 0.25
        },
        {
          "id": 1,
          "value": 0.25
        },
        {
          "id": 2,
          "value": 0.25
        },
        {
          "id": 3,
          "value": 0.875
        }
      ],
      "leftModuleId": 21,
      "rightModuleId": 23,
      "pos": [
        30,
        0
      ]
    },
    {
      "id": 21,
      "plugin": "4msCompany",
      "version": "1.0.0",
      "model": "Freeverb",
      "params": [
        {
          "id": 0,
          "value": 0.25
        },
        {
          "id": 1,
          "value": 0.25
        },
        {
          "id": 2,
          "value": 0.25
        },
        {
          "id": 3,
          "value": 0.875
        }
      ],
      "leftModuleId": 18,
      "rightModuleId": 20,
      "pos": [
        20,
        0
      ]
    },
    {
      "id": 22,
      "plugin": "4msCompany",
      "version": "1.0.0",
      "model": "PanelMedium",
      "params": [
        {
          "id": 0,
          "value": 0.0
        },
        {
          "id": 1,
          "value": 0.0
        },
        {
          "id": 2,
          "value": 0.0
        },
        {
          "id": 3,
          "value": 0.0
        },
        {
          "id": 4,
          "value": 0.0
        },
        {
          "id": 5,
          "value": 0.0
        },
        {
          "id": 6,
          "value": 0.0
        },
        {
          "id": 7,
          "value": 0.0
        },
        {
          "id": 8,
          "value": 0.0
        },
        {
          "id": 9,
          "value": 0.0
        },
        {
          "id": 10,
          "value": 0.0
        },
        {
          "id": 11,
          "value": 0.0
        },
        {
          "id": 12,
          "value": 0.0
        }
      ],
      "leftModuleId": 25,
      "data": {
        "Mappings": [
          {
            "DstModID": 18,
            "DstObjID": 1,
            "DstObjType": "InputJack",
            "SrcModID": 22,
            "SrcObjID": 0,
            "SrcObjType": "InputJack",
            "RangeMin": 0.0,
            "RangeMax": 1.0,
            "AliasName": ""
          },
          {
            "DstModID": 18,
            "DstObjID": 6,
            "DstObjType": "InputJack",
            "SrcModID": 22,
            "SrcObjID": 1,
            "SrcObjType": "InputJack",
            "RangeMin": 0.0,
            "RangeMax": 1.0,
            "AliasName": ""
          },
          {
            "DstModID": 25,
            "DstObjID": 1,
            "DstObjType": "OutputJack",
            "SrcModID": 22,
            "SrcObjID": 0,
            "SrcObjType": "OutputJack",
            "RangeMin": 0.0,
            "RangeMax": 1.0,
            "AliasName": ""
          },
          {
            "DstModID": 25,
            "DstObjID": 2,
            "DstObjType": "OutputJack",
            "SrcModID": 22,
            "SrcObjID": 1,
            "SrcObjType": "OutputJack",
            "RangeMin": 0.0,
            "RangeMax": 1.0,
            "AliasName": ""
          }
        ],
        "PatchName": "Sea of Echoes",
        "PatchDesc": "Stereo Delay, Reverb, and Tapographic Delay"
      },
      "pos": [
        86,
        0
      ]
    },
    {
      "id": 23,
      "plugin": "4msCompany",
      "version": "1.0.0",
      "model": "Tapo",
      "params": [
        {
          "id": 0,
          "value": 0.875
        },
        {
          "id": 1,
          "value": 0.0
        },
        {
          "id": 2,
          "value": 0.5
        },
        {
          "id": 3,
          "value": 0.25
        },
        {
          "id": 4,
          "value": 0.0
        },
        {
          "id": 5,
          "value": 1.0
        },
        {
          "id": 6,
          "value": 0.0
        },
        {
          "id": 7,
          "value": 0.0
        },
        {
          "id": 8,
          "value": 0.0
        },
        {
          "id": 9,
          "value": 0.0
        },
        {
          "id": 10,
          "value": 0.0
        },
        {
          "id": 11,
          "value": 0.0
        },
        {
          "id": 12,
          "value": 0.0
        },
        {
          "id": 13,
          "value": 0.0
        },
        {
          "id": 14,
          "value": 0.0
        },
        {
          "id": 15,
          "value": 0.0
        },
        {
          "id": 16,
          "value": 0.0
        }
      ],
      "leftModuleId": 20,
      "rightModuleId": 24,
      "pos": [
        40,
        0
      ]
    },
    {
      "id": 24,
      "plugin": "4msCompany",
      "version": "1.0.0",
      "model": "Tapo",
      "params": [
        {
          "id": 0,
          "value": 0.875
        },
        {
          "id": 1,
          "value": 0.0
        },
        {
          "id": 2,
          "value": 0.5
        },
        {
          "id": 3,
          "value": 0.25
        },
        {
          "id": 4,
          "value": 0.0
        },
        {
          "id": 5,
          "value": 1.0
        },
        {
          "id": 6,
          "value": 0.0
        },
        {
          "id": 7,
          "value": 0.0
        },
        {
          "id": 8,
          "value": 0.0
        },
        {
          "id": 9,
          "value": 0.0
        },
        {
          "id": 10,
          "value": 0.0
        },
        {
          "id": 11,
          "value": 0.0
        },
        {
          "id": 12,
          "value": 0.0
        },
        {
          "id": 13,
          "value": 0.0
        },
        {
          "id": 14,
          "value": 0.0
        },
        {
          "id": 15,
          "value": 0.0
        },
        {
          "id": 16,
          "value": 0.0
        }
      ],
      "leftModuleId": 23,
      "rightModuleId": 25,
      "pos": [
        58,
        0
      ]
    },
    {
      "id": 25,
      "plugin": "4msCompany",
      "version": "1.0.0",
      "model": "L4",
      "params": [
        {
          "id": 0,
          "value": 0.5
        },
        {
          "id": 1,
          "value": 0.0
        },
        {
          "id": 2,
          "value": 0.5
        },
        {
          "id": 3,
          "value": 0.0
        },
        {
          "id": 4,
          "value": 0.875
        },
        {
          "id": 5,
          "value": 0.875
        },
        {
          "id": 6,
          "value": 0.875
        },
        {
          "id": 7,
          "value": 0.875
        },
        {
          "id": 8,
          "value": 1.0
        }
      ],
      "leftModuleId": 24,
      "rightModuleId": 22,
      "pos": [
        76,
        0
      ]
    }
  ],
  "cables": [
    {
      "id": 29,
      "outputModuleId": 18,
      "outputId": 3,
      "inputModuleId": 21,
      "inputId": 0,
      "color": "#0986ad"
    },
    {
      "id": 30,
      "outputModuleId": 18,
      "outputId": 6,
      "inputModuleId": 20,
      "inputId": 0,
      "color": "#c9b70e"
    },
    {
      "id": 31,
      "outputModuleId": 21,
      "outputId": 0,
      "inputModuleId": 23,
      "inputId": 4,
      "color": "#c91847"
    },
    {
      "id": 32,
      "outputModuleId": 20,
      "outputId": 0,
      "inputModuleId": 24,
      "inputId": 4,
      "color": "#0986ad"
    },
    {
      "id": 33,
      "outputModuleId": 23,
      "outputId": 1,
      "inputModuleId": 25,
      "inputId": 2,
      "color": "#0c8e15"
    },
    {
      "id": 34,
      "outputModuleId": 23,
      "outputId": 2,
      "inputModuleId": 25,
      "inputId": 3,
      "color": "#c91847"
    },
    {
      "id": 35,
      "outputModuleId": 24,
      "outputId": 1,
      "inputModuleId": 25,
      "inputId": 4,
      "color": "#0986ad"
    },
    {
      "id": 36,
      "outputModuleId": 24,
      "outputId": 2,
      "inputModuleId": 25,
      "inputId": 5,
      "color": "#c9b70e"
    }
  ]
}